# xmcd
#
# Track frame offsets: 
#        150
#        10923
#        22916
#        36539
#        48456
#        62494
#        75149
#        88404
#        102207
#        114654
#        127695
#        139068
#        152851
#        165879
#
# Disc length: 2394 seconds
#
# Revision: 5
# Processed by: cddbd v1.5.2PL0 Copyright (c) Steve Scherf et al.
# Submitted via: ExactAudioCopy v1.0b4
#
DISCID=a309580e
DTITLE=Various Artist - Blues in History IV CD1
DYEAR=1900
DGENRE=Blues
TTITLE0=T-Bone Walker - T-Bone Walker - Lonesome women blues
TTITLE1=T-Bone Walker - T-Bone Walker - Too much trouble blues
TTITLE2=T-Bone Walker - T-Bone Walker - Call it stormy Monday
TTITLE3=T-Bone Walker - T-Bone Walker - Bobby Sox Blues
TTITLE4=T-Bone Walker - T-Bone Walker - So Blue Blues
TTITLE5=T-Bone Walker - T-Bone Walker - Hypin' Women Blues
TTITLE6=Roosevelt Sykes - Roosevelt Sykes - The Honeydripper
TTITLE7=Big Joe Williams - Big Joe Williams - Somebody's Been Borrowin
TTITLE7=g That Stuff
TTITLE8=Big Joe Turner - Big Joe Turner - Hollywood bed
TTITLE9=Big Joe Turner - Big Joe Turner - Miss Brown Blues
TTITLE10=Willie Dixon - Willie Dixon -Big 3 Boogie
TTITLE11=Willie Dixon - Willie Dixon -If The Sea Was Whiskey
TTITLE12=Willie Dixon - Willie Dixon -Signifying Monkey
TTITLE13=Willie Dixon - Willie Dixon -Big 3 Stomp
EXTD=
EXTT0=
EXTT1=
EXTT2=
EXTT3=
EXTT4=
EXTT5=
EXTT6=
EXTT7=
EXTT8=
EXTT9=
EXTT10=
EXTT11=
EXTT12=
EXTT13=
PLAYORDER=
